# xmcd
#
# Track frame offsets:
#	183
#	12130
#	27700
#	41695
#	60483
#	71663
#	83315
#	93835
#	105895
#	125875
#	139258
#	151145
#	166390
#
# Disc length: 2346 seconds
#
# Revision: 0
# Processed by: cddbd v1.5.1PL0 Copyright (c) Steve Scherf et al.
# Submitted via: dBpowerAMP V4.0
#
DISCID=9e09280d
DTITLE=New Contry Rain - Hey Mister
DYEAR=1991
DGENRE=Country
TTITLE0=There is Time
TTITLE1=Hey Mister
TTITLE2=San Antonio Rose
TTITLE3=The Wayfaring Stranger
TTITLE4=Summer Sun
TTITLE5=Plant your Fields
TTITLE6=Lazy Melody
TTITLE7=Tears in my Eyes
TTITLE8=Knockin'on Heaven's Door
TTITLE9=Easy Ride
TTITLE10=I've just seen a Face
TTITLE11=Hound Dog
TTITLE12=Great Balls of Fire
EXTD=
EXTT0=
EXTT1=
EXTT2=
EXTT3=
EXTT4=
EXTT5=
EXTT6=
EXTT7=
EXTT8=
EXTT9=
EXTT10=
EXTT11=
EXTT12=
PLAYORDER=
